<svg xmlns="http://www.w3.org/2000/svg" width="180" height="180" viewBox="0 0 180 180" fill="none" role="img" aria-label="Cadrumo mark">
  <defs>
    <filter id="cad-glow" x="-90.3" y="-90.8" width="377.1" height="363.6" filterUnits="userSpaceOnUse" color-interpolation-filters="sRGB">
      <feGaussianBlur stdDeviation="23.4"/>
    </filter>
    <filter id="cad-star" x="2.4" y="2.4" width="175.2" height="175.2" filterUnits="userSpaceOnUse" color-interpolation-filters="sRGB">
      <feGaussianBlur stdDeviation="3.8"/>
    </filter>
    <clipPath id="cad-tile">
      <path d="M0 56C0 25.0721 25.0721 0 56 0H124C154.928 0 180 25.0721 180 56V124C180 154.928 154.928 180 124 180H56C25.0721 180 0 154.928 0 124V56Z"/>
    </clipPath>
  </defs>
  <g clip-path="url(#cad-tile)">
    <path d="M0 56C0 25.0721 25.0721 0 56 0H124C154.928 0 180 25.0721 180 56V124C180 154.928 154.928 180 124 180H56C25.0721 180 0 154.928 0 124V56Z" fill="#E4DED4"/>
    <g filter="url(#cad-glow)">
      <circle cx="62" cy="127" r="70" fill="#55876B"/>
      <circle cx="26.5" cy="156" r="70" fill="#55876B"/>
      <circle cx="121" cy="59" r="70" fill="#C4553B"/>
      <circle cx="170" cy="26" r="70" fill="#C4553B"/>
    </g>
    <g filter="url(#cad-star)">
      <path d="M170 90C100.909 96.0224 96.0247 100.906 89.9992 170C83.9753 100.906 79.0898 96.0224 10 90C79.0898 83.9744 83.9753 79.0905 89.9992 10C96.0247 79.0905 100.909 83.9744 170 90Z" fill="#FAF8F4"/>
    </g>
  </g>
</svg>
